# xmcd
#
# Track frame offsets:
#	150
#	18205
#	30961
#	47417
#	62021
#	80143
#	97295
#	117687
#	133777
#	152408
#	169702
#	183913
#	203861
#	219007
#	234522
#	252501
#	272562
#
# Disc length: 3851 seconds
#
# Revision: 1
# Processed by: cddbd v1.5.1PL2 Copyright (c) Steve Scherf et al.
# Submitted via: dBpowerAMP V4.0
#
DISCID=e30f0911
DTITLE=Plomien 81 - Historie z sasiedztwa
DYEAR=2005
DGENRE=Hip-Hop
TTITLE0=Kiedy Slonce Wstaje
TTITLE1=Kolejny Raz
TTITLE2=Moj Dom
TTITLE3=Powiedz Na Osiedlu
TTITLE4=Niespelniony Sen
TTITLE5=Odwaga
TTITLE6=WWA
TTITLE7=30 Stopni W Cieniu Bloku
TTITLE8=Jestem Przeciw
TTITLE9=Trudno Mnie Kochac (feat. A2A)
TTITLE10=Co Jest (feat. Nowator)
TTITLE11=Przejazdzka
TTITLE12=Tekst
TTITLE13=Na Podworko I Do Klubu
TTITLE14=To Nie Tak (feat. A2A)
TTITLE15=Odwaga (Zjawin Remix)
TTITLE16=Co jest (Scoop Remix) (feat. Nowator)
EXTD=P³omieñ 81\nHistorie z s¹siedwztwa\nwww.TIREX.Elite.to
EXTT0=
EXTT1=
EXTT2=
EXTT3=
EXTT4=
EXTT5=
EXTT6=
EXTT7=
EXTT8=
EXTT9=
EXTT10=
EXTT11=
EXTT12=
EXTT13=
EXTT14=
EXTT15=
EXTT16=
PLAYORDER=
